<svg xmlns="http://www.w3.org/2000/svg" viewBox="0 0 1993 2144" width="1993" height="2144">
	<style>
		tspan { white-space:pre }
		.shp0 { fill: #008489 } 
	</style>
	<path id="Layer" fill-rule="evenodd" class="shp0" d="M1964.2 1524.2C1992 1603.6 2000.6 1678.6 1983.4 1753.6C1959.8 1912.3 1854.7 2049.6 1704.5 2109.7C1650.8 2133.3 1590.8 2144 1530.7 2144C1513.5 2144 1492.1 2141.9 1474.9 2139.7C1404.1 2131.1 1331.2 2107.6 1260.4 2066.8C1174.6 2017.5 1088.8 1946.7 994.4 1843.7C900 1946.7 816.4 2017.5 728.4 2066.8C657.6 2107.6 584.7 2131.1 513.9 2139.7C496.7 2141.9 475.3 2144 458.1 2144C398 2144 340.1 2133.3 284.3 2109.7C136.3 2049.7 29 1914.5 5.4 1753.6C-5.3 1676.4 3.3 1601.3 31.2 1521.9C41.2 1495.9 51.9 1470.1 63.4 1444.7C80.6 1406.1 97.8 1369.6 112.8 1335.3L114.9 1331C262.9 1009.2 423.8 683.1 589 361.3L595.4 348.5C612.6 316.3 629.7 282 646.9 247.7C668.3 209.1 691.9 168.3 724.1 129.7C795 48.2 891.5 1 998.8 1C1103.9 1 1202.6 48.2 1271.3 134.1C1305.6 172.7 1327 213.5 1348.5 252.1C1365.7 286.4 1382.8 320.7 1400 352.9L1406.4 365.8C1573.7 687.6 1732.5 1013.7 1880.5 1335.5L1882.6 1337.6C1897.7 1371.9 1914.8 1408.4 1932 1447C1942.7 1470.6 1953.5 1498.5 1964.2 1524.2ZM1852.6 1736.6C1861.2 1680.8 1854.8 1627.2 1837.7 1571.3C1831.3 1549.9 1820.5 1528.5 1809.8 1502.7C1792.7 1468.4 1777.7 1429.7 1760.5 1395.4L1760.5 1393.3C1612.5 1073.6 1453.7 747.5 1290.7 427.9L1284.2 415C1267 382.9 1249.9 348.6 1232.7 316.4C1215.5 282.1 1196.2 249.9 1172.6 222C1127.6 170.5 1067.5 142.6 1001 142.6C934.5 142.6 874.5 170.5 829.4 222C805.8 249.9 786.5 282.1 769.3 316.4C752.1 348.6 735 383 717.8 415.1L711.4 428C546.2 745.5 387.4 1071.6 239.4 1391.3L237.2 1395.6C220.1 1432.1 202.9 1468.6 187.9 1502.9C177.2 1528.6 166.4 1550 160 1571.5C138.6 1631.6 134.3 1685.2 140.7 1738.8C155.7 1850.3 230.8 1946.9 335.9 1989.8C387.7 2010 443.6 2017.4 498.9 2011.2C552.5 2004.8 606.1 1987.6 661.9 1955.4C739.2 1912.5 818.5 1846 906.5 1747.3C767 1573.6 679.1 1412.7 646.9 1271.1C629.8 1206.7 627.6 1144.5 636.2 1088.7C644.8 1035.1 664.1 985.7 694.1 942.8C760.6 848.4 872.2 790.5 996.6 790.5C1121 790.5 1232.6 846.3 1299.1 942.8C1329.1 985.7 1348.4 1035.1 1357 1088.7C1363.5 1144.5 1361.3 1204.6 1346.3 1271.1C1314.1 1412.7 1228.3 1571.4 1086.7 1745.2C1176.8 1843.9 1254.1 1910.3 1331.3 1953.3C1387 1985.4 1440.7 2002.6 1494.3 2009C1550.1 2015.5 1605.9 2009 1657.4 1987.6C1762.5 1944.7 1837.6 1848.2 1852.6 1736.6ZM996.6 1635.7C1112.5 1487.7 1187.6 1350.4 1213.3 1236.7C1224 1189.5 1226.1 1144.4 1219.7 1105.8C1215.4 1071.5 1202.6 1041.5 1185.4 1015.7C1146.8 955.7 1076 921.3 996.6 921.3C917.2 921.3 848.6 957.8 807.8 1015.7C790.7 1041.4 777.8 1071.5 773.5 1105.8C767 1144.4 769.2 1187.3 779.9 1236.7C805.7 1352.5 880.8 1489.8 996.6 1635.7Z" />
</svg>